<svg xmlns="http://www.w3.org/2000/svg" width="46" height="46" viewBox="0 0 46 46">
  <defs>
    <style>
      .cls-1 {
        fill: #405de6;
        fill-rule: evenodd;
      }
    </style>
  </defs>
  <path id="Rectangle_1_copy" data-name="Rectangle 1 copy" class="cls-1" d="M1241,3218a23,23,0,1,1-23,23A23,23,0,0,1,1241,3218Zm10.94,27.54a8.017,8.017,0,0,1-.52,2.67,5.524,5.524,0,0,1-3.21,3.21,8.017,8.017,0,0,1-2.67.52c-1.18.05-1.55,0.06-4.54,0.06s-3.36-.01-4.54-0.06a8.017,8.017,0,0,1-2.67-.52,5.524,5.524,0,0,1-3.21-3.21,8.017,8.017,0,0,1-.52-2.67c-0.05-1.18-.06-1.55-0.06-4.54s0.01-3.36.06-4.54a8.017,8.017,0,0,1,.52-2.67,5.524,5.524,0,0,1,3.21-3.21,8.017,8.017,0,0,1,2.67-.52c1.18-.05,1.55-0.06,4.54-0.06s3.36,0.01,4.54.06a8.017,8.017,0,0,1,2.67.52,5.524,5.524,0,0,1,3.21,3.21,8.017,8.017,0,0,1,.52,2.67c0.05,1.18.06,1.55,0.06,4.54S1251.99,3244.36,1251.94,3245.54Zm-1.98-8.99a6.132,6.132,0,0,0-.38-2.04,3.744,3.744,0,0,0-2.09-2.09,6.132,6.132,0,0,0-2.04-.38c-1.16-.05-1.51-0.06-4.45-0.06s-3.29.01-4.45,0.06a6.132,6.132,0,0,0-2.04.38,3.744,3.744,0,0,0-2.09,2.09,6.132,6.132,0,0,0-.38,2.04c-0.05,1.16-.06,1.51-0.06,4.45s0.01,3.29.06,4.45a6.132,6.132,0,0,0,.38,2.04,3.744,3.744,0,0,0,2.09,2.09,6.132,6.132,0,0,0,2.04.38c1.16,0.05,1.51.06,4.45,0.06s3.29-.01,4.45-0.06a6.132,6.132,0,0,0,2.04-.38,3.744,3.744,0,0,0,2.09-2.09,6.132,6.132,0,0,0,.38-2.04c0.05-1.16.06-1.51,0.06-4.45S1250.01,3237.71,1249.96,3236.55Zm-2.7-.41a1.405,1.405,0,1,1,1.41-1.4A1.4,1.4,0,0,1,1247.26,3236.14Zm-6.26,10.89a6.03,6.03,0,1,1,6.03-6.03A6.03,6.03,0,0,1,1241,3247.03Zm0-9.94a3.91,3.91,0,1,0,3.91,3.91A3.909,3.909,0,0,0,1241,3237.09Z" transform="translate(-1218 -3218)"/>
</svg>
