<svg xmlns="http://www.w3.org/2000/svg" width="46" height="46" viewBox="0 0 46 46">
  <defs>
    <style>
      .cls-1 {
        fill: #1da1f2;
        fill-rule: evenodd;
      }
    </style>
  </defs>
  <path id="Rectangle_1_copy_3" data-name="Rectangle 1 copy 3" class="cls-1" d="M1185,3218a23,23,0,1,1-23,23A23,23,0,0,1,1185,3218Zm9.2,18.47c-0.16,7.77-4.92,13.17-12.14,13.51a11.707,11.707,0,0,1-7.06-2.03,8.5,8.5,0,0,0,6.4-1.86,4.449,4.449,0,0,1-4.1-3.21,6.357,6.357,0,0,0,1.8,0,4.553,4.553,0,0,1-3.44-4.56,3.215,3.215,0,0,0,1.8.51c-1.48-.84-2.46-4.05-1.31-6.08a12.911,12.911,0,0,0,9.02,4.73c-1.14-4.73,5.09-7.26,7.55-4.05a10.784,10.784,0,0,0,2.79-1.02,4.815,4.815,0,0,1-1.8,2.54,9.028,9.028,0,0,0,2.29-.68A4.49,4.49,0,0,1,1194.2,3236.47Z" transform="translate(-1162 -3218)"/>
</svg>
