<svg xmlns="http://www.w3.org/2000/svg" width="46" height="46" viewBox="0 0 46 46">
  <defs>
    <style>
      .cls-1 {
        fill: #cd201f;
        fill-rule: evenodd;
      }
    </style>
  </defs>
  <path id="Rectangle_1_copy_2" data-name="Rectangle 1 copy 2" class="cls-1" d="M1297,3218a23,23,0,1,1-23,23A23,23,0,0,1,1297,3218Zm9.6,14.47a96.24,96.24,0,0,0-19.2,0c-1.92.59-2.4,4.75-2.4,9.02s0.48,8.43,2.4,9.03a98.278,98.278,0,0,0,19.2,0c1.92-.6,2.4-4.75,2.4-9.03S1308.52,3233.06,1306.6,3232.47Zm-12.59,14.52v-11l7.98,5.5Z" transform="translate(-1274 -3218)"/>
</svg>
